<mxfile host="app.diagrams.net" agent="Mozilla/5.0 (X11; Ubuntu; Linux x86_64; rv:138.0) Gecko/20100101 Firefox/138.0" version="27.0.6">
  <diagram name="Página-1" id="YQ3bNfg-6lHZXASNae6s">
    <mxGraphModel grid="1" page="1" gridSize="10" guides="1" tooltips="1" connect="1" arrows="1" fold="1" pageScale="1" pageWidth="827" pageHeight="1169" math="0" shadow="0">
      <root>
        <mxCell id="0" />
        <mxCell id="1" parent="0" />
        <mxCell id="9nUe9Oh-4Kf_H4jt5r8c-1" value="Para cada router en router_state" style="whiteSpace=wrap;strokeWidth=2;" vertex="1" parent="1">
          <mxGeometry x="206.5" y="105.99999999999955" width="260" height="78" as="geometry" />
        </mxCell>
        <mxCell id="9nUe9Oh-4Kf_H4jt5r8c-2" value="¿Tiempo &gt; NODE_TIMEOUT?" style="rhombus;strokeWidth=2;whiteSpace=wrap;" vertex="1" parent="1">
          <mxGeometry x="235.5" y="222.99999999999955" width="202" height="182" as="geometry" />
        </mxCell>
        <mxCell id="9nUe9Oh-4Kf_H4jt5r8c-3" value="Continuar bucle" style="whiteSpace=wrap;strokeWidth=2;" vertex="1" parent="1">
          <mxGeometry x="252" y="895.9999999999995" width="172" height="54" as="geometry" />
        </mxCell>
        <mxCell id="9nUe9Oh-4Kf_H4jt5r8c-4" value="¿Router en G y NO en inactive_routers?" style="rhombus;strokeWidth=2;whiteSpace=wrap;" vertex="1" parent="1">
          <mxGeometry x="300.5" y="443.99999999999955" width="242" height="242" as="geometry" />
        </mxCell>
        <mxCell id="9nUe9Oh-4Kf_H4jt5r8c-5" value="G.remove_node(router)&#xa;    removed.append(router)&#xa;    modified = True&#xa;    metrics[&#39;nodes_removed&#39;] += 1" style="whiteSpace=wrap;strokeWidth=2;" vertex="1" parent="1">
          <mxGeometry x="359.5" y="725.9999999999995" width="260" height="105" as="geometry" />
        </mxCell>
        <mxCell id="9nUe9Oh-4Kf_H4jt5r8c-7" value="" style="curved=1;startArrow=none;endArrow=block;exitX=0.5;exitY=1;entryX=0.5;entryY=0;rounded=0;" edge="1" parent="1" source="9nUe9Oh-4Kf_H4jt5r8c-1" target="9nUe9Oh-4Kf_H4jt5r8c-2">
          <mxGeometry relative="1" as="geometry">
            <Array as="points" />
          </mxGeometry>
        </mxCell>
        <mxCell id="9nUe9Oh-4Kf_H4jt5r8c-8" value="No" style="curved=1;startArrow=none;endArrow=block;exitX=0.21;exitY=1;entryX=0.18;entryY=0;rounded=0;" edge="1" parent="1" source="9nUe9Oh-4Kf_H4jt5r8c-2" target="9nUe9Oh-4Kf_H4jt5r8c-3">
          <mxGeometry relative="1" as="geometry">
            <Array as="points">
              <mxPoint x="219.5" y="822.9999999999995" />
            </Array>
          </mxGeometry>
        </mxCell>
        <mxCell id="9nUe9Oh-4Kf_H4jt5r8c-10" value="Sí" style="curved=1;startArrow=none;endArrow=block;exitX=0.76;exitY=1;entryX=0.5;entryY=0;rounded=0;" edge="1" parent="1" source="9nUe9Oh-4Kf_H4jt5r8c-2" target="9nUe9Oh-4Kf_H4jt5r8c-4">
          <mxGeometry relative="1" as="geometry">
            <Array as="points">
              <mxPoint x="402.5" y="375.99999999999955" />
            </Array>
          </mxGeometry>
        </mxCell>
        <mxCell id="9nUe9Oh-4Kf_H4jt5r8c-11" value="No" style="curved=1;startArrow=none;endArrow=block;exitX=0.25;exitY=1;entryX=0.49;entryY=0;rounded=0;" edge="1" parent="1" source="9nUe9Oh-4Kf_H4jt5r8c-4" target="9nUe9Oh-4Kf_H4jt5r8c-3">
          <mxGeometry relative="1" as="geometry">
            <Array as="points">
              <mxPoint x="352.5" y="675.9999999999995" />
              <mxPoint x="312.5" y="795.9999999999995" />
            </Array>
          </mxGeometry>
        </mxCell>
        <mxCell id="9nUe9Oh-4Kf_H4jt5r8c-12" value="Sí" style="curved=1;startArrow=none;endArrow=block;exitX=0.75;exitY=1;entryX=0.5;entryY=0;rounded=0;" edge="1" parent="1" source="9nUe9Oh-4Kf_H4jt5r8c-4" target="9nUe9Oh-4Kf_H4jt5r8c-5">
          <mxGeometry relative="1" as="geometry">
            <Array as="points">
              <mxPoint x="489.5" y="675.9999999999995" />
            </Array>
          </mxGeometry>
        </mxCell>
        <mxCell id="9nUe9Oh-4Kf_H4jt5r8c-13" value="" style="curved=1;startArrow=none;endArrow=block;exitX=0.5;exitY=1;entryX=1;entryY=0.02;rounded=0;" edge="1" parent="1" source="9nUe9Oh-4Kf_H4jt5r8c-5" target="9nUe9Oh-4Kf_H4jt5r8c-3">
          <mxGeometry relative="1" as="geometry">
            <Array as="points">
              <mxPoint x="472.5" y="875.9999999999995" />
            </Array>
          </mxGeometry>
        </mxCell>
      </root>
    </mxGraphModel>
  </diagram>
</mxfile>
